<svg width="20" height="21" viewBox="0 0 20 21" fill="none" xmlns="http://www.w3.org/2000/svg">
<g id="&#240;&#159;&#166;&#134; icon &#34;image&#34;">
<g id="Group">
<path id="Vector" d="M15.9477 20.011H4.06206C2.64732 20.011 1.35357 19.2943 0.608973 18.0843C-0.135629 16.8744 -0.200781 15.4038 0.43213 14.1286L2.03302 10.9175C2.55425 9.87509 3.39192 9.22357 4.33198 9.12118C5.27204 9.0188 6.23072 9.48418 6.9567 10.387L7.16147 10.6476C7.571 11.1502 8.04568 11.4201 8.51102 11.3736C8.9764 11.3364 9.40454 11.0013 9.721 10.4335L11.4801 7.25971C12.2061 5.94735 13.1741 5.2679 14.2258 5.31444C15.2683 5.37028 16.1618 6.15211 16.7575 7.52963L19.6707 14.3334C20.2106 15.5899 20.0803 17.0233 19.3264 18.1681C18.5818 19.3315 17.3159 20.011 15.9477 20.011ZM4.59259 10.5173C4.55536 10.5173 4.51813 10.5173 4.4809 10.5266C4.01553 10.5732 3.58738 10.9455 3.28023 11.5504L1.67934 14.7615C1.2605 15.5899 1.30704 16.5672 1.79103 17.3583C2.27502 18.1495 3.13131 18.6242 4.06206 18.6242H15.9384C16.8506 18.6242 17.6603 18.1867 18.1629 17.4235C18.6655 16.6603 18.7493 15.7481 18.3863 14.9105L15.4731 8.10669C15.1194 7.26902 14.6261 6.7571 14.1514 6.73849C13.7139 6.71056 13.1462 7.17594 12.6994 7.96708L10.9403 11.1409C10.4004 12.1089 9.55346 12.7139 8.63202 12.7977C7.71061 12.8721 6.77055 12.4254 6.07249 11.5504L5.86772 11.2898C5.47681 10.7779 5.03005 10.5173 4.59259 10.5173Z" fill="white"/>
<path id="Vector_2" d="M5.34677 6.98064C3.42942 6.98064 1.85645 5.41698 1.85645 3.49032C1.85645 1.56366 3.42011 0 5.34677 0C7.27342 0 8.83709 1.56366 8.83709 3.49032C8.83709 5.41698 7.27342 6.98064 5.34677 6.98064ZM5.34677 1.39613C4.19263 1.39613 3.25257 2.33619 3.25257 3.49032C3.25257 4.64445 4.19263 5.58451 5.34677 5.58451C6.5009 5.58451 7.44096 4.64445 7.44096 3.49032C7.44096 2.33619 6.5009 1.39613 5.34677 1.39613Z" fill="white"/>
</g>
</g>
</svg>
