<svg width="19" height="19" viewBox="0 0 19 19" fill="none" xmlns="http://www.w3.org/2000/svg">
<g id="Group 202">
<path id="Vector" d="M7.25 10.7916C7.25 11.5999 7.875 12.2499 8.64167 12.2499H10.2083C10.875 12.2499 11.4167 11.6833 11.4167 10.9749C11.4167 10.2166 11.0833 9.94159 10.5917 9.76659L8.08333 8.89159C7.59167 8.71659 7.25833 8.44992 7.25833 7.68325C7.25833 6.98325 7.8 6.40825 8.46667 6.40825H10.0333C10.8 6.40825 11.425 7.05825 11.425 7.86659M9.33333 5.58325V13.0833" stroke="white" stroke-width="1.5" stroke-linecap="round" stroke-linejoin="round"/>
<path id="Vector_2" d="M17.6667 9.33333C17.6667 13.9333 13.9333 17.6667 9.33333 17.6667C4.73333 17.6667 1 13.9333 1 9.33333C1 4.73333 4.73333 1 9.33333 1M17.6667 4.33333V1M17.6667 1H14.3333M17.6667 1L13.5 5.16667" stroke="white" stroke-width="1.5" stroke-linecap="round" stroke-linejoin="round"/>
</g>
</svg>
