<?xml version="1.0" encoding="utf-8"?>
<svg viewBox="171.7483 111.9354 764.4072 764.4062" width="764.407px" height="764.406px" xmlns="http://www.w3.org/2000/svg">
  <g transform="matrix(40.23190307617187, 0, 0, 40.23190307617187, 553.9513632349872, 494.1384961327684)" id="Vector" style="">
    <path style="stroke: rgb(255,255,255); stroke-width: 0; stroke-dasharray: none; stroke-linecap: butt; stroke-dashoffset: 0; stroke-linejoin: miter; stroke-miterlimit: 4; fill: rgb(255,255,255); fill-rule: nonzero; opacity: 1;" vector-effect="non-scaling-stroke" transform=" translate(-9.5, -9.5)" d="M 17.2292 9.595 C 17.1335 9.595 16.9421 9.69 16.8463 9.785 C 16.3189 10.3085 16.3189 11.1615 16.8463 11.685 L 16.9421 11.78 C 17.4719 12.3058 18.3266 12.3058 18.8564 11.78 C 19.0479 11.59 19.0479 11.21 18.8564 11.02 L 17.6121 9.785 C 17.5164 9.69 17.4207 9.595 17.2292 9.595 Z M 16.3794 12.2208 C 15.8382 11.7092 14.9896 11.716 14.4566 12.2363 L 9.99492 16.5919 C 9.72435 16.8561 9.57179 17.2182 9.57179 17.5963 C 9.57179 18.3716 10.2143 19 10.9895 19 C 11.3652 19 11.7315 18.8515 11.9982 18.5868 L 16.4037 14.2143 C 16.96 13.6622 16.949 12.7592 16.3794 12.2208 Z M 17.2292 2 C 17.2292 0.895431 16.3338 0 15.2292 0 L 11.5718 0 C 10.4672 0 9.57179 0.89543 9.57179 2 L 9.57179 3.7 C 9.57179 4.80457 10.4672 5.7 11.5718 5.7 L 15.2292 5.7 C 16.3338 5.7 17.2292 4.80457 17.2292 3.7 L 17.2292 2 Z M 15.3149 2.85 C 15.3149 3.37467 14.8895 3.8 14.3649 3.8 L 12.4361 3.8 C 11.9115 3.8 11.4861 3.37467 11.4861 2.85 C 11.4861 2.32533 11.9115 1.9 12.4361 1.9 L 14.3649 1.9 C 14.8895 1.9 15.3149 2.32533 15.3149 2.85 Z M 11.2015 12.6976 C 10.5968 13.2947 9.57179 12.8664 9.57179 12.0165 L 9.57179 9.57674 C 9.57179 8.48501 10.4568 7.6 11.5485 7.6 L 17.1817 7.6 C 17.208 7.6 17.2292 7.62127 17.2292 7.6475 C 17.2292 7.67373 17.2079 7.69495 17.1817 7.69554 C 16.4739 7.7116 15.8525 8.08309 15.4967 8.4455 L 15.0084 8.92583 C 14.6343 9.29379 14.1306 9.5 13.6059 9.5 L 13.4861 9.5 C 12.3816 9.5 11.4861 10.3954 11.4861 11.5 L 11.4861 12.0165 C 11.4861 12.2724 11.3836 12.5177 11.2015 12.6976 Z M 7.65743 2 C 7.65743 0.89543 6.762 0 5.65743 0 L 2 0 C 0.895432 0 0 0.895431 0 2 L 0 7.5 C 0 8.60457 0.89543 9.5 2 9.5 L 5.65743 9.5 C 6.762 9.5 7.65743 8.60457 7.65743 7.5 L 7.65743 2 Z M 5.74307 5.68564 C 5.74307 6.74291 4.88599 7.6 3.82872 7.6 C 2.77145 7.6 1.91436 6.74291 1.91436 5.68564 L 1.91436 3.81436 C 1.91436 2.75709 2.77145 1.9 3.82872 1.9 C 4.88599 1.9 5.74307 2.75709 5.74307 3.81436 L 5.74307 5.68564 Z M 7.65743 16.207 L 7.65743 13.4 C 7.65743 12.2954 6.762 11.4 5.65743 11.4 L 2 11.4 C 0.895432 11.4 0 12.2954 0 13.4 L 0 15.1 C 0 16.2046 0.89543 17.1 2 17.1 L 6.76443 17.1 C 7.25762 17.1 7.65743 16.7002 7.65743 16.207 Z M 5.74307 14.25 C 5.74307 14.7747 5.31774 15.2 4.79307 15.2 L 2.86436 15.2 C 2.33969 15.2 1.91436 14.7747 1.91436 14.25 C 1.91436 13.7253 2.33969 13.3 2.86436 13.3 L 4.79307 13.3 C 5.31774 13.3 5.74307 13.7253 5.74307 14.25 Z" stroke-linecap="round"/>
  </g>
</svg>