<svg width="24" height="24" viewBox="0 0 24 24" fill="none" xmlns="http://www.w3.org/2000/svg">
<g id="Background">
<path id="Vector" d="M18 1.5C21.3137 1.5 24 4.18629 24 7.5V16.5C24 19.8137 21.3137 22.5 18 22.5H6C2.68629 22.5 0 19.8137 0 16.5V7.5C0 4.18629 2.68629 1.5 6 1.5H18ZM6.63222 10.045L1.5 15.177V16.5C1.5 18.9288 3.42418 20.9082 5.8313 20.9969L6 21H17.5875L6.63222 10.045ZM22.5 8.64675L14.928 16.2195L19.4642 20.7564C21.1801 20.1663 22.4269 18.5678 22.4969 16.6687L22.5 16.5V8.64675ZM18 3H6C3.5712 3 1.59182 4.92418 1.5031 7.3313L1.5 7.5V13.0553L5.57156 8.98439C6.13072 8.42523 7.0215 8.39981 7.61081 8.90814L7.69288 8.98439L13.8668 15.1583L22.4128 6.61374C22.0118 4.60623 20.2752 3.08074 18.1687 3.0031L18 3ZM13.95 4.5C15.6069 4.5 16.95 5.84315 16.95 7.5C16.95 9.15685 15.6069 10.5 13.95 10.5C12.2931 10.5 10.95 9.15685 10.95 7.5C10.95 5.84315 12.2931 4.5 13.95 4.5ZM13.95 6C13.1216 6 12.45 6.67157 12.45 7.5C12.45 8.32843 13.1216 9 13.95 9C14.7784 9 15.45 8.32843 15.45 7.5C15.45 6.67157 14.7784 6 13.95 6Z" fill="#BABCBE"/>
</g>
</svg>
