<svg width="25" height="22" viewBox="0 0 25 22" fill="none" xmlns="http://www.w3.org/2000/svg">
<path id="Vector" fill-rule="evenodd" clip-rule="evenodd" d="M18.75 0C22.2018 0 25 2.81421 25 6.28571V15.7143C25 19.1858 22.2018 22 18.75 22H6.25C2.79822 22 0 19.1858 0 15.7143V6.28571C0 2.81421 2.79822 0 6.25 0H18.75ZM21.8488 7.87054C21.5416 7.56578 21.047 7.56913 20.7439 7.87803L14.4432 14.3008L8.73255 8.55746L8.64927 8.48093C8.13533 8.05004 7.37413 8.12677 6.89504 8.60859L2.86737 12.6593L2.80666 12.7278C2.56383 13.0362 2.58407 13.4855 2.86737 13.7704L2.93551 13.8315C3.24217 14.0757 3.68892 14.0554 3.97223 13.7704L7.83961 9.88088L15.5732 17.6595L15.6413 17.7206C15.948 17.9648 16.3947 17.9445 16.6781 17.6595C16.9831 17.3527 16.9831 16.8552 16.6781 16.5484L15.5479 15.4118L21.8562 8.98169L21.9164 8.91275C22.1572 8.60271 22.134 8.15355 21.8488 7.87054ZM14.5312 3.92857C12.8054 3.92857 11.4062 5.33568 11.4062 7.07143C11.4062 8.80718 12.8054 10.2143 14.5312 10.2143C16.2571 10.2143 17.6562 8.80718 17.6562 7.07143C17.6562 5.33568 16.2571 3.92857 14.5312 3.92857ZM14.5312 5.5C15.3942 5.5 16.0938 6.20355 16.0938 7.07143C16.0938 7.9393 15.3942 8.64286 14.5312 8.64286C13.6683 8.64286 12.9688 7.9393 12.9688 7.07143C12.9688 6.20355 13.6683 5.5 14.5312 5.5Z" fill="#5E5F62"/>
</svg>
