<svg width="19" height="19" viewBox="0 0 19 19" fill="none" xmlns="http://www.w3.org/2000/svg">
<path id="Vector" fill-rule="evenodd" clip-rule="evenodd" d="M9.5 19C5.02165 19 2.78248 19 1.39125 17.6087C-1.13249e-07 16.2175 0 13.9783 0 9.5C0 5.02165 -1.13249e-07 2.78248 1.39125 1.39125C2.78248 -1.13249e-07 5.02165 0 9.5 0C13.9783 0 16.2175 -1.13249e-07 17.6087 1.39125C19 2.78248 19 5.02165 19 9.5C19 13.9783 19 16.2175 17.6087 17.6087C16.2175 19 13.9783 19 9.5 19ZM6.4125 4.27498C6.4125 3.88147 6.0935 3.56248 5.7 3.56248C5.3065 3.56248 4.9875 3.88147 4.9875 4.27498V5.46249H3.8C3.4065 5.46249 3.0875 5.78149 3.0875 6.17499C3.0875 6.5685 3.4065 6.88749 3.8 6.88749H4.9875V8.075C4.9875 8.46849 5.3065 8.7875 5.7 8.7875C6.0935 8.7875 6.4125 8.46849 6.4125 8.075V6.88749H7.6C7.99349 6.88749 8.3125 6.5685 8.3125 6.17499C8.3125 5.78149 7.99349 5.46249 7.6 5.46249H6.4125V4.27498ZM11.4 5.46248C11.0065 5.46248 10.6875 5.78147 10.6875 6.17498C10.6875 6.56848 11.0065 6.88748 11.4 6.88748H15.2C15.5935 6.88748 15.9125 6.56848 15.9125 6.17498C15.9125 5.78147 15.5935 5.46248 15.2 5.46248H11.4ZM11.4 11.1625C11.0065 11.1625 10.6875 11.4815 10.6875 11.875C10.6875 12.2685 11.0065 12.5875 11.4 12.5875H15.2C15.5935 12.5875 15.9125 12.2685 15.9125 11.875C15.9125 11.4815 15.5935 11.1625 15.2 11.1625H11.4ZM4.77881 11.3712C4.50057 11.093 4.04943 11.093 3.77119 11.3712C3.49294 11.6495 3.49294 12.1005 3.77119 12.3788L4.69238 13.3L3.7712 14.2212C3.49295 14.4995 3.49295 14.9505 3.7712 15.2288C4.04945 15.507 4.50058 15.507 4.77882 15.2288L5.70001 14.3077L6.62118 15.2288C6.89942 15.507 7.35055 15.507 7.62879 15.2288C7.90704 14.9505 7.90704 14.4995 7.62879 14.2212L6.70764 13.3L7.62879 12.3788C7.90704 12.1005 7.90704 11.6495 7.62879 11.3712C7.35057 11.093 6.89943 11.093 6.62119 11.3712L5.70001 12.2923L4.77881 11.3712ZM11.4 14.0125C11.0065 14.0125 10.6875 14.3315 10.6875 14.725C10.6875 15.1185 11.0065 15.4375 11.4 15.4375H15.2C15.5935 15.4375 15.9125 15.1185 15.9125 14.725C15.9125 14.3315 15.5935 14.0125 15.2 14.0125H11.4Z" fill="#5E5F62"/>
</svg>
