<svg width="21" height="21" viewBox="0 0 21 21" fill="none" xmlns="http://www.w3.org/2000/svg">
<g id="Calc">
<path id="Vector" d="M2.34844 18.0669C3.69687 19.4154 5.86714 19.4154 10.2077 19.4154C14.5482 19.4154 16.7185 19.4154 18.0669 18.0669C19.4154 16.7185 19.4154 14.5482 19.4154 10.2077C19.4154 5.86714 19.4154 3.69687 18.0669 2.34844C16.7185 1 14.5482 1 10.2077 1C5.86714 1 3.69687 1 2.34844 2.34844C1 3.69687 1 5.86714 1 10.2077C1 14.5482 1 16.7185 2.34844 18.0669Z" stroke="#BABCBE" stroke-width="1.3"/>
<path id="Vector_2" d="M15.9078 7.13861H12.1078M15.9078 12.4002H12.1078M15.9078 15.0309H12.1078M8.30781 7.13862H6.40781M6.40781 7.13862H4.50781M6.40781 7.13862V5.38477M6.40781 7.13862V8.89247M7.83281 12.4002L6.40782 13.7155M6.40782 13.7155L4.98282 15.0309M6.40782 13.7155L4.98281 12.4002M6.40782 13.7155L7.8328 15.0309" stroke="#BABCBE" stroke-width="1.3" stroke-linecap="round"/>
</g>
</svg>
