<svg width="20" height="19" viewBox="0 0 20 19" fill="none" xmlns="http://www.w3.org/2000/svg">
<g id="Cal">
<path id="Vector" d="M1 9.33082C1 6.02373 1 4.37019 2.02738 3.34281C3.05476 2.31543 4.7083 2.31543 8.01538 2.31543H11.5231C14.8301 2.31543 16.4837 2.31543 17.5111 3.34281C18.5385 4.37019 18.5385 6.02373 18.5385 9.33082V11.0847C18.5385 14.3917 18.5385 16.0453 17.5111 17.0726C16.4837 18.1 14.8301 18.1 11.5231 18.1H8.01538C4.7083 18.1 3.05476 18.1 2.02738 17.0726C1 16.0453 1 14.3917 1 11.0847V9.33082Z" stroke="#BABCBE" stroke-width="1.3"/>
<path id="Vector_2" d="M5.38477 2.31538V1" stroke="#BABCBE" stroke-width="1.3" stroke-linecap="round"/>
<path id="Vector_3" d="M14.1538 2.31538V1" stroke="#BABCBE" stroke-width="1.3" stroke-linecap="round"/>
<path id="Vector_4" d="M1.43848 6.7002H18.1" stroke="#BABCBE" stroke-width="1.3" stroke-linecap="round"/>
<path id="Vector_5" d="M15.0312 13.7158C15.0312 14.2001 14.6386 14.5927 14.1543 14.5927C13.6699 14.5927 13.2773 14.2001 13.2773 13.7158C13.2773 13.2315 13.6699 12.8389 14.1543 12.8389C14.6386 12.8389 15.0312 13.2315 15.0312 13.7158Z" fill="#BABCBE"/>
<path id="Vector_6" d="M15.0312 10.207C15.0312 10.6913 14.6386 11.0839 14.1543 11.0839C13.6699 11.0839 13.2773 10.6913 13.2773 10.207C13.2773 9.72268 13.6699 9.33008 14.1543 9.33008C14.6386 9.33008 15.0312 9.72268 15.0312 10.207Z" fill="#BABCBE"/>
<path id="Vector_7" d="M10.6459 13.7158C10.6459 14.2001 10.2533 14.5927 9.76901 14.5927C9.28469 14.5927 8.89209 14.2001 8.89209 13.7158C8.89209 13.2315 9.28469 12.8389 9.76901 12.8389C10.2533 12.8389 10.6459 13.2315 10.6459 13.7158Z" fill="#BABCBE"/>
<path id="Vector_8" d="M10.6459 10.207C10.6459 10.6913 10.2533 11.0839 9.76901 11.0839C9.28469 11.0839 8.89209 10.6913 8.89209 10.207C8.89209 9.72268 9.28469 9.33008 9.76901 9.33008C10.2533 9.33008 10.6459 9.72268 10.6459 10.207Z" fill="#BABCBE"/>
<path id="Vector_9" d="M6.26215 13.7158C6.26215 14.2001 5.86953 14.5927 5.38522 14.5927C4.90092 14.5927 4.5083 14.2001 4.5083 13.7158C4.5083 13.2315 4.90092 12.8389 5.38522 12.8389C5.86953 12.8389 6.26215 13.2315 6.26215 13.7158Z" fill="#BABCBE"/>
<path id="Vector_10" d="M6.26215 10.207C6.26215 10.6913 5.86953 11.0839 5.38522 11.0839C4.90092 11.0839 4.5083 10.6913 4.5083 10.207C4.5083 9.72268 4.90092 9.33008 5.38522 9.33008C5.86953 9.33008 6.26215 9.72268 6.26215 10.207Z" fill="#BABCBE"/>
</g>
</svg>
