<svg width="20" height="19" viewBox="0 0 20 19" fill="none" xmlns="http://www.w3.org/2000/svg">
<g id="Group 215">
<path id="Vector" d="M6.26392 0.690577C6.26392 0.309185 5.95474 0 5.57335 0C5.19195 0 4.88277 0.309185 4.88277 0.690577V2.14471C3.55748 2.25083 2.68744 2.51128 2.04825 3.15048C1.40905 3.78967 1.1486 4.65971 1.04248 5.985H19.3119C19.2058 4.65971 18.9453 3.78967 18.3061 3.15048C17.6669 2.51128 16.7969 2.25083 15.4716 2.14471V0.690577C15.4716 0.309185 15.1624 0 14.781 0C14.3997 0 14.0905 0.309185 14.0905 0.690577V2.08361C13.4779 2.07173 12.7913 2.07173 12.0187 2.07173H8.33565C7.5631 2.07173 6.87648 2.07173 6.26392 2.08361V0.690577Z" fill="#5E5F62"/>
<path id="Vector_2" fill-rule="evenodd" clip-rule="evenodd" d="M0.969238 9.43696C0.969238 8.66444 0.969238 7.97782 0.981116 7.36523H19.3727C19.3846 7.97782 19.3846 8.66444 19.3846 9.43696V11.2785C19.3846 14.7509 19.3846 16.4872 18.3058 17.5659C17.2272 18.6447 15.4909 18.6447 12.0185 18.6447H8.33539C4.86295 18.6447 3.12674 18.6447 2.04798 17.5659C0.969238 16.4872 0.969238 14.7509 0.969238 11.2785V9.43696ZM14.7808 11.2785C15.2893 11.2785 15.7015 10.8663 15.7015 10.3577C15.7015 9.84919 15.2893 9.43696 14.7808 9.43696C14.2722 9.43696 13.86 9.84919 13.86 10.3577C13.86 10.8663 14.2722 11.2785 14.7808 11.2785ZM14.7808 14.9616C15.2893 14.9616 15.7015 14.5494 15.7015 14.0408C15.7015 13.5323 15.2893 13.12 14.7808 13.12C14.2722 13.12 13.86 13.5323 13.86 14.0408C13.86 14.5494 14.2722 14.9616 14.7808 14.9616ZM11.0977 10.3577C11.0977 10.8663 10.6855 11.2785 10.1769 11.2785C9.66839 11.2785 9.25616 10.8663 9.25616 10.3577C9.25616 9.84919 9.66839 9.43696 10.1769 9.43696C10.6855 9.43696 11.0977 9.84919 11.0977 10.3577ZM11.0977 14.0408C11.0977 14.5494 10.6855 14.9616 10.1769 14.9616C9.66839 14.9616 9.25616 14.5494 9.25616 14.0408C9.25616 13.5323 9.66839 13.12 10.1769 13.12C10.6855 13.12 11.0977 13.5323 11.0977 14.0408ZM5.57308 11.2785C6.08161 11.2785 6.49385 10.8663 6.49385 10.3577C6.49385 9.84919 6.08161 9.43696 5.57308 9.43696C5.06456 9.43696 4.65232 9.84919 4.65232 10.3577C4.65232 10.8663 5.06456 11.2785 5.57308 11.2785ZM5.57308 14.9616C6.08161 14.9616 6.49385 14.5494 6.49385 14.0408C6.49385 13.5323 6.08161 13.12 5.57308 13.12C5.06456 13.12 4.65232 13.5323 4.65232 14.0408C4.65232 14.5494 5.06456 14.9616 5.57308 14.9616Z" fill="#5E5F62"/>
<path id="Vector_3" fill-rule="evenodd" clip-rule="evenodd" d="M0.969238 9.43696C0.969238 8.66444 0.969238 7.97782 0.981116 7.36523H19.3727C19.3846 7.97782 19.3846 8.66444 19.3846 9.43696V11.2785C19.3846 14.7509 19.3846 16.4872 18.3058 17.5659C17.2272 18.6447 15.4909 18.6447 12.0185 18.6447H8.33539C4.86295 18.6447 3.12674 18.6447 2.04798 17.5659C0.969238 16.4872 0.969238 14.7509 0.969238 11.2785V9.43696ZM14.7808 11.2785C15.2893 11.2785 15.7015 10.8663 15.7015 10.3577C15.7015 9.84919 15.2893 9.43696 14.7808 9.43696C14.2722 9.43696 13.86 9.84919 13.86 10.3577C13.86 10.8663 14.2722 11.2785 14.7808 11.2785ZM14.7808 14.9616C15.2893 14.9616 15.7015 14.5494 15.7015 14.0408C15.7015 13.5323 15.2893 13.12 14.7808 13.12C14.2722 13.12 13.86 13.5323 13.86 14.0408C13.86 14.5494 14.2722 14.9616 14.7808 14.9616ZM11.0977 10.3577C11.0977 10.8663 10.6855 11.2785 10.1769 11.2785C9.66839 11.2785 9.25616 10.8663 9.25616 10.3577C9.25616 9.84919 9.66839 9.43696 10.1769 9.43696C10.6855 9.43696 11.0977 9.84919 11.0977 10.3577ZM11.0977 14.0408C11.0977 14.5494 10.6855 14.9616 10.1769 14.9616C9.66839 14.9616 9.25616 14.5494 9.25616 14.0408C9.25616 13.5323 9.66839 13.12 10.1769 13.12C10.6855 13.12 11.0977 13.5323 11.0977 14.0408ZM5.57308 11.2785C6.08161 11.2785 6.49385 10.8663 6.49385 10.3577C6.49385 9.84919 6.08161 9.43696 5.57308 9.43696C5.06456 9.43696 4.65232 9.84919 4.65232 10.3577C4.65232 10.8663 5.06456 11.2785 5.57308 11.2785ZM5.57308 14.9616C6.08161 14.9616 6.49385 14.5494 6.49385 14.0408C6.49385 13.5323 6.08161 13.12 5.57308 13.12C5.06456 13.12 4.65232 13.5323 4.65232 14.0408C4.65232 14.5494 5.06456 14.9616 5.57308 14.9616Z" fill="#5E5F62"/>
</g>
</svg>
