<svg width="9" height="9" viewBox="0 0 9 9" fill="none" xmlns="http://www.w3.org/2000/svg">
<path id="Vector" d="M4.5 5.45817L1.14639 8.81179C1.02091 8.93726 0.861217 9 0.6673 9C0.473384 9 0.313688 8.93726 0.188213 8.81179C0.0627374 8.68631 0 8.52662 0 8.3327C0 8.13878 0.0627374 7.97909 0.188213 7.85361L3.54183 4.5L0.188213 1.14639C0.0627374 1.02091 0 0.861217 0 0.6673C0 0.473384 0.0627374 0.313688 0.188213 0.188213C0.313688 0.0627374 0.473384 0 0.6673 0C0.861217 0 1.02091 0.0627374 1.14639 0.188213L4.5 3.54183L7.85361 0.188213C7.97909 0.0627374 8.13878 0 8.3327 0C8.52662 0 8.68631 0.0627374 8.81179 0.188213C8.93726 0.313688 9 0.473384 9 0.6673C9 0.861217 8.93726 1.02091 8.81179 1.14639L5.45817 4.5L8.81179 7.85361C8.93726 7.97909 9 8.13878 9 8.3327C9 8.52662 8.93726 8.68631 8.81179 8.81179C8.68631 8.93726 8.52662 9 8.3327 9C8.13878 9 7.97909 8.93726 7.85361 8.81179L4.5 5.45817Z" fill="#D8D8D8"/>
</svg>
