<svg width="19" height="19" viewBox="0 0 19 19" fill="none" xmlns="http://www.w3.org/2000/svg">
<g id="Group 221">
<path id="Subtract" fill-rule="evenodd" clip-rule="evenodd" d="M9.73847 18.4154C14.5815 18.4154 18.5077 14.4893 18.5077 9.64618C18.5077 4.80307 14.5815 0.876953 9.73847 0.876953C4.89535 0.876953 0.969238 4.80307 0.969238 9.64618C0.969238 14.4893 4.89535 18.4154 9.73847 18.4154ZM10.396 6.13816C10.396 5.77493 10.1015 5.48047 9.73826 5.48047C9.37504 5.48047 9.08057 5.77493 9.08057 6.13816V9.64585C9.08057 9.82027 9.14984 9.98759 9.27323 10.1109L11.4655 12.3032C11.7224 12.56 12.1387 12.56 12.3956 12.3032C12.6524 12.0463 12.6524 11.63 12.3956 11.3731L10.396 9.37339V6.13816Z" fill="#5E5F62"/>
</g>
</svg>
