<svg width="22" height="22" viewBox="0 0 22 22" fill="none" xmlns="http://www.w3.org/2000/svg">
<g id="Impact">
<g id="Group">
<path id="Vector" d="M8.5 12.7512C8.5 13.7212 9.25 14.5012 10.17 14.5012H12.05C12.85 14.5012 13.5 13.8212 13.5 12.9712C13.5 12.0612 13.1 11.7312 12.51 11.5212L9.5 10.4712C8.91 10.2612 8.51001 9.94118 8.51001 9.02118C8.51001 8.18121 9.16 7.49121 9.96 7.49121H11.84C12.76 7.49121 13.51 8.27121 13.51 9.24118" stroke="#BABCBE" stroke-width="1.5" stroke-linecap="round" stroke-linejoin="round"/>
<path id="Vector_2" d="M11 6.5V15.5" stroke="#BABCBE" stroke-width="1.5" stroke-linecap="round" stroke-linejoin="round"/>
</g>
<path id="Vector_3" d="M21 11C21 16.52 16.52 21 11 21C5.48 21 1 16.52 1 11C1 5.48 5.48 1 11 1" stroke="#BABCBE" stroke-width="1.5" stroke-linecap="round" stroke-linejoin="round"/>
<path id="Vector_4" d="M21 5V1H17" stroke="#BABCBE" stroke-width="1.5" stroke-linecap="round" stroke-linejoin="round"/>
<path id="Vector_5" d="M16 6L21 1" stroke="#BABCBE" stroke-width="1.5" stroke-linecap="round" stroke-linejoin="round"/>
</g>
</svg>
