<svg width="23" height="23" viewBox="0 0 23 23" fill="none" xmlns="http://www.w3.org/2000/svg">
<g id="Group 229">
<path id="Vector" d="M9.14453 9.73176C9.14453 10.3303 9.3108 10.419 9.68766 10.552L10.253 10.7515V8.86719H9.92043C9.49923 8.86719 9.14453 9.25514 9.14453 9.73176Z" fill="#5E5F62"/>
<path id="Vector_2" d="M11.9155 14.9654H12.2481C12.6803 14.9654 13.024 14.5774 13.024 14.1008C13.024 13.5023 12.8577 13.4136 12.4808 13.2806L11.9155 13.0811V14.9654Z" fill="#5E5F62"/>
<path id="Vector_3" d="M19.4862 4.68938L17.214 6.96166C17.0477 7.12793 16.8371 7.20552 16.6265 7.20552C16.4159 7.20552 16.2053 7.12793 16.039 6.96166C15.7176 6.64022 15.7176 6.10817 16.039 5.78672L18.3113 3.51444C16.3605 1.85179 13.8443 0.832031 11.0843 0.832031C4.96578 0.832031 0 5.79781 0 11.9164C0 18.0349 4.96578 23.0007 11.0843 23.0007C17.2029 23.0007 22.1686 18.0349 22.1686 11.9164C22.1686 9.15636 21.1489 6.64022 19.4862 4.68938ZM13.0241 11.7168C13.7335 11.9718 14.6867 12.4817 14.6867 14.1111C14.6867 15.4966 13.5894 16.6383 12.2482 16.6383H11.9156V16.9154C11.9156 17.3698 11.5388 17.7467 11.0843 17.7467C10.6299 17.7467 10.253 17.3698 10.253 16.9154V16.6383H10.1643C8.69011 16.6383 7.48192 15.3968 7.48192 13.8672C7.48192 13.4017 7.85879 13.0248 8.31324 13.0248C8.7677 13.0248 9.14457 13.4017 9.14457 13.8561C9.14457 14.4657 9.59902 14.9645 10.1643 14.9645H10.253V12.5038L9.14457 12.1159C8.43517 11.8609 7.48192 11.3511 7.48192 9.72166C7.48192 8.33612 8.57927 7.19443 9.92047 7.19443H10.253V6.92841C10.253 6.47395 10.6299 6.09708 11.0843 6.09708C11.5388 6.09708 11.9156 6.47395 11.9156 6.92841V7.20552H12.0043C13.4785 7.20552 14.6867 8.44696 14.6867 9.9766C14.6867 10.4311 14.3099 10.8079 13.8554 10.8079C13.4009 10.8079 13.0241 10.4311 13.0241 9.9766C13.0241 9.36696 12.5696 8.86817 12.0043 8.86817H11.9156V11.3289L13.0241 11.7168Z" fill="#5E5F62"/>
<path id="Vector_4" d="M22.9332 0.509879C22.8445 0.310361 22.6893 0.144096 22.4787 0.0554216C22.379 0.0221686 22.2792 0 22.1684 0H17.7346C17.2802 0 16.9033 0.376867 16.9033 0.831324C16.9033 1.28578 17.2802 1.66265 17.7346 1.66265H20.1621L18.311 3.51373C18.7322 3.87951 19.1202 4.26746 19.486 4.68867L21.337 2.83759V5.26505C21.337 5.71951 21.7139 6.09638 22.1684 6.09638C22.6228 6.09638 22.9997 5.71951 22.9997 5.26505V0.831324C22.9997 0.720481 22.9775 0.620722 22.9332 0.509879Z" fill="#5E5F62"/>
</g>
</svg>
