<svg width="20" height="21" viewBox="0 0 20 21" fill="none" xmlns="http://www.w3.org/2000/svg">
<g id="Group 217">
<path id="Vector" d="M0.854223 13.2542L1.37691 15.205C1.98705 17.482 2.29212 18.6205 2.98372 19.359C3.5298 19.942 4.23652 20.3501 5.01448 20.5314C5.99978 20.7611 7.13831 20.4561 9.41543 19.8459C11.6924 19.2358 12.831 18.9307 13.5694 18.2392C13.6307 18.1817 13.69 18.1225 13.7475 18.0617C13.41 18.0334 13.0696 17.9791 12.7237 17.9103C12.0208 17.7705 11.1856 17.5467 10.1979 17.282L10.09 17.2531L10.065 17.2465C8.99032 16.9585 8.09236 16.7174 7.37539 16.4584C6.62141 16.186 5.93633 15.8503 5.35459 15.3054C4.55289 14.5546 3.99188 13.5828 3.74245 12.5131C3.56146 11.7369 3.6132 10.9756 3.75431 10.1865C3.88954 9.43029 4.13239 8.52404 4.42337 7.43818L4.96298 5.42434L4.98196 5.35352C3.04268 5.87592 2.02193 6.185 1.34122 6.82256C0.758165 7.36864 0.350145 8.07535 0.168753 8.85332C-0.060986 9.83863 0.24408 10.9771 0.854223 13.2542Z" fill="#5E5F62"/>
<path id="Vector_2" fill-rule="evenodd" clip-rule="evenodd" d="M19.1053 9.21543L18.5825 11.1662C17.9724 13.4433 17.6673 14.5818 16.9757 15.3202C16.4296 15.9032 15.7229 16.3113 14.945 16.4926C14.8478 16.5153 14.7491 16.5328 14.6479 16.5452C13.7239 16.6592 12.5965 16.3571 10.5441 15.8072C8.267 15.197 7.12846 14.892 6.39004 14.2004C5.80699 13.6543 5.39897 12.9476 5.21758 12.1696C4.98784 11.1842 5.29291 10.0458 5.90305 7.76869L6.42574 5.81799C6.51347 5.4906 6.59494 5.18652 6.67211 4.904C7.13162 3.22171 7.44041 2.29619 8.03255 1.66397C8.57861 1.08092 9.28534 0.672899 10.0634 0.491507C11.0486 0.261768 12.1872 0.566834 14.4643 1.17698C16.7412 1.78712 17.8798 2.09219 18.6183 2.78379C19.2013 3.32987 19.6093 4.03658 19.7907 4.81456C20.0204 5.79984 19.7154 6.93838 19.1053 9.21543ZM9.23303 8.29705C9.34128 7.89305 9.75659 7.6533 10.1606 7.76155L15.0373 9.06831C15.4413 9.17656 15.681 9.59177 15.5728 9.99577C15.4645 10.3998 15.0493 10.6395 14.6453 10.5312L9.7685 9.22452C9.3645 9.11627 9.12479 8.70106 9.23303 8.29705ZM8.44866 11.2227C8.5569 10.8187 8.97211 10.579 9.37611 10.6872L12.3022 11.4713C12.7062 11.5796 12.9459 11.9948 12.8376 12.3988C12.7294 12.8028 12.3142 13.0426 11.9102 12.9343L8.98413 12.1503C8.58013 12.042 8.34031 11.6267 8.44866 11.2227Z" fill="#5E5F62"/>
</g>
</svg>
