<svg width="21" height="22" viewBox="0 0 21 22" fill="none" xmlns="http://www.w3.org/2000/svg">
<g id="Notes">
<path id="Vector" d="M18.6662 11.8102L19.1657 9.94635C19.7486 7.77076 20.04 6.68296 19.8206 5.74157C19.6473 4.99826 19.2574 4.32304 18.7004 3.80129C17.9948 3.1405 16.907 2.84903 14.7315 2.26607C12.5558 1.68312 11.468 1.39164 10.5266 1.61115C9.7833 1.78446 9.10806 2.1743 8.58633 2.73137C8.02057 3.33541 7.72554 4.2197 7.28651 5.82703C7.21278 6.09696 7.13498 6.38729 7.05116 6.7001L6.55172 8.56407C5.96876 10.7397 5.67729 11.8274 5.89679 12.7689C6.0701 13.5122 6.45994 14.1874 7.01701 14.7092C7.72252 15.3699 8.81034 15.6614 10.986 16.2444C12.9469 16.7698 14.0241 17.0585 14.9069 16.9495C15.0036 16.9377 15.0979 16.921 15.1908 16.8993C15.934 16.726 16.6093 16.3362 17.131 15.7791C17.7918 15.0736 18.0833 13.9858 18.6662 11.8102Z" stroke="#BABCBE" stroke-width="1.3"/>
<path id="Vector_2" d="M14.907 16.9487C14.7059 17.5647 14.3522 18.1219 13.8766 18.5674C13.1711 19.2281 12.0833 19.5196 9.90772 20.1026C7.73207 20.6855 6.64427 20.9769 5.70288 20.7575C4.95958 20.5842 4.28435 20.1943 3.7626 19.6373C3.10182 18.9317 2.81034 17.844 2.22739 15.6684L1.72799 13.8045C1.14503 11.6289 0.853558 10.5411 1.07306 9.59972C1.24637 8.85644 1.63621 8.18122 2.19328 7.65947C2.89879 6.99868 3.9866 6.70721 6.16221 6.12425C6.57381 6.01396 6.94647 5.91411 7.28658 5.82617" stroke="#BABCBE" stroke-width="1.3"/>
<path id="Vector_3" d="M10.4321 9.25488L15.0915 10.5034" stroke="#BABCBE" stroke-width="1.3" stroke-linecap="round"/>
<path id="Vector_4" d="M9.68213 12.0518L12.4778 12.8008" stroke="#BABCBE" stroke-width="1.3" stroke-linecap="round"/>
</g>
</svg>
