<svg width="19" height="18" viewBox="0 0 19 18" fill="none" xmlns="http://www.w3.org/2000/svg">
<g id="&#240;&#159;&#166;&#134; icon &#34;setting 2&#34;">
<g id="Group">
<path id="Vector" d="M9.49154 12.3053C7.66394 12.3053 6.18066 10.8221 6.18066 8.99447C6.18066 7.16687 7.66394 5.68359 9.49154 5.68359C11.3191 5.68359 12.8024 7.16687 12.8024 8.99447C12.8024 10.8221 11.3191 12.3053 9.49154 12.3053ZM9.49154 7.00794C8.39674 7.00794 7.50501 7.89967 7.50501 8.99447C7.50501 10.0893 8.39674 10.981 9.49154 10.981C10.5863 10.981 11.4781 10.0893 11.4781 8.99447C11.4781 7.89967 10.5863 7.00794 9.49154 7.00794Z" fill="#BABCBE"/>
<path id="Vector_2" d="M12.3253 17.9915C12.1399 17.9915 11.9545 17.9651 11.7691 17.9209C11.2217 17.7708 10.7625 17.4265 10.4712 16.9409L10.3652 16.7643C9.84433 15.8638 9.12918 15.8638 8.60827 16.7643L8.51115 16.9321C8.2198 17.4265 7.76069 17.7796 7.21329 17.9209C6.65706 18.071 6.08318 17.9915 5.59758 17.7002L4.079 16.8261C3.54043 16.5171 3.15195 16.0138 2.9842 15.4046C2.82528 14.7954 2.90474 14.1686 3.21375 13.63C3.4698 13.1797 3.54043 12.7736 3.39033 12.5176C3.24024 12.2615 2.86059 12.1114 2.33968 12.1114C1.05065 12.1114 0 11.0608 0 9.77174V8.21784C0 6.92881 1.05065 5.87816 2.33968 5.87816C2.86059 5.87816 3.24024 5.72806 3.39033 5.47202C3.54043 5.21598 3.47862 4.80985 3.21375 4.35957C2.90474 3.821 2.82528 3.18531 2.9842 2.58494C3.14312 1.97574 3.5316 1.47249 4.079 1.16347L5.60641 0.289403C6.60409 -0.30214 7.91961 0.0421906 8.51998 1.05753L8.62593 1.2341C9.14684 2.13466 9.86199 2.13466 10.3829 1.2341L10.48 1.06635C11.0804 0.0421906 12.3959 -0.30214 13.4024 0.298232L14.921 1.1723C15.4596 1.48132 15.848 1.98457 16.0158 2.59377C16.1747 3.20297 16.0953 3.82983 15.7862 4.3684C15.5302 4.81868 15.4596 5.22481 15.6097 5.48085C15.7598 5.73689 16.1394 5.88699 16.6603 5.88699C17.9493 5.88699 19 6.93764 19 8.22667V9.78057C19 11.0696 17.9493 12.1203 16.6603 12.1203C16.1394 12.1203 15.7598 12.2703 15.6097 12.5264C15.4596 12.7824 15.5214 13.1886 15.7862 13.6388C16.0953 14.1774 16.1835 14.8131 16.0158 15.4135C15.8569 16.0227 15.4684 16.5259 14.921 16.8349L13.3936 17.709C13.0581 17.8944 12.6961 17.9915 12.3253 17.9915ZM9.49117 14.7248C10.277 14.7248 11.0098 15.2192 11.513 16.0933L11.6101 16.2611C11.7161 16.4465 11.8927 16.5789 12.1046 16.6319C12.3164 16.6848 12.5283 16.6584 12.7049 16.5524L14.2323 15.6695C14.4619 15.5371 14.6385 15.3164 14.7091 15.0515C14.7797 14.7866 14.7444 14.5129 14.612 14.2834C14.1087 13.4181 14.0469 12.5264 14.4354 11.8466C14.8239 11.1667 15.6273 10.7782 16.6338 10.7782C17.1989 10.7782 17.6492 10.328 17.6492 9.76291V8.20901C17.6492 7.65279 17.1989 7.19368 16.6338 7.19368C15.6273 7.19368 14.8239 6.8052 14.4354 6.12537C14.0469 5.44554 14.1087 4.55381 14.612 3.68857C14.7444 3.45901 14.7797 3.18531 14.7091 2.92044C14.6385 2.65557 14.4707 2.44368 14.2412 2.30241L12.7138 1.42834C12.3341 1.19879 11.8309 1.33122 11.6013 1.7197L11.5042 1.88745C11.0009 2.76152 10.2681 3.25595 9.48234 3.25595C8.69656 3.25595 7.96375 2.76152 7.4605 1.88745L7.36338 1.71087C7.14266 1.34005 6.64823 1.20762 6.26859 1.42834L4.74117 2.31124C4.51162 2.44368 4.33504 2.6644 4.2644 2.92927C4.19377 3.19414 4.22909 3.46784 4.36152 3.6974C4.86478 4.56264 4.92658 5.45436 4.5381 6.1342C4.14963 6.81403 3.34619 7.20251 2.33968 7.20251C1.77463 7.20251 1.32435 7.65278 1.32435 8.21784V9.77174C1.32435 10.328 1.77463 10.7871 2.33968 10.7871C3.34619 10.7871 4.14963 11.1756 4.5381 11.8554C4.92658 12.5352 4.86478 13.4269 4.36152 14.2922C4.22909 14.5217 4.19377 14.7954 4.2644 15.0603C4.33504 15.3252 4.50279 15.5371 4.73234 15.6783L6.25976 16.5524C6.44517 16.6672 6.66589 16.6937 6.86896 16.6407C7.08085 16.5877 7.25743 16.4465 7.37221 16.2611L7.46933 16.0933C7.97258 15.2281 8.70539 14.7248 9.49117 14.7248Z" fill="#BABCBE"/>
</g>
</g>
</svg>
