<svg width="18" height="14" viewBox="0 0 18 14" fill="none" xmlns="http://www.w3.org/2000/svg">
<path id="Vector" d="M1.38462 2.76923C1.38462 1.23983 2.62444 0 4.15385 0C5.68325 0 6.92308 1.23983 6.92308 2.76923V2.83077C6.92308 4.36017 5.68325 5.6 4.15385 5.6C2.62444 5.6 1.38462 4.36017 1.38462 2.83077V2.76923ZM4.15385 1.86667C3.64404 1.86667 3.23077 2.27994 3.23077 2.78974V2.81026C3.23077 3.32006 3.64404 3.73333 4.15385 3.73333C4.66365 3.73333 5.07692 3.32006 5.07692 2.81026V2.78974C5.07692 2.27994 4.66365 1.86667 4.15385 1.86667ZM8.76923 2.8C8.76923 2.28453 9.1871 1.86667 9.70256 1.86667H17.0667C17.5821 1.86667 18 2.28453 18 2.8C18 3.31547 17.5821 3.73333 17.0667 3.73333H9.70256C9.1871 3.73333 8.76923 3.31547 8.76923 2.8ZM8.76923 10.2667C8.76923 9.7512 9.1871 9.33333 9.70256 9.33333H17.0667C17.5821 9.33333 18 9.7512 18 10.2667C18 10.7821 17.5821 11.2 17.0667 11.2H9.70256C9.1871 11.2 8.76923 10.7821 8.76923 10.2667ZM4.864 12.3486C3.96493 13.2577 2.49661 13.2577 1.59754 12.3486L0.644359 11.3849C0.287343 11.0239 0.287343 10.4428 0.644359 10.0818C1.00639 9.71577 1.59741 9.71506 1.96031 10.0802L2.26668 10.3885C2.79795 10.9231 3.66302 10.9226 4.19359 10.3873L6.80936 7.74819C7.17188 7.38244 7.76318 7.38277 8.1253 7.74891C8.48208 8.10966 8.48208 8.69034 8.1253 9.05109L4.864 12.3486Z" fill="#BABCBE"/>
</svg>
