<svg width="18" height="18" viewBox="0 0 18 18" fill="none" xmlns="http://www.w3.org/2000/svg">
<path id="Vector" fill-rule="evenodd" clip-rule="evenodd" d="M9 18C4.75736 18 2.63604 18 1.31802 16.6819C-1.07288e-07 15.364 0 13.2426 0 9C0 4.75736 -1.07288e-07 2.63604 1.31802 1.31802C2.63604 -1.07288e-07 4.75736 0 9 0C13.2426 0 15.364 -1.07288e-07 16.6819 1.31802C18 2.63604 18 4.75736 18 9C18 13.2426 18 15.364 16.6819 16.6819C15.364 18 13.2426 18 9 18ZM12.6273 6.2727C12.8909 6.5363 12.8909 6.9637 12.6273 7.22727L8.12727 11.7273C7.86366 11.9909 7.43634 11.9909 7.1727 11.7273L5.3727 9.92727C5.1091 9.66366 5.1091 9.23634 5.3727 8.97273C5.6363 8.70912 6.0637 8.70912 6.3273 8.97273L7.65 10.2954L11.6727 6.2727C11.9363 6.0091 12.3637 6.0091 12.6273 6.2727Z" fill="#5E5F62"/>
</svg>
