<svg width="17" height="16" viewBox="0 0 17 16" fill="none" xmlns="http://www.w3.org/2000/svg">
<path id="Translate" d="M9.69228 16C9.37836 16 9.15286 15.8965 9.01578 15.6896C8.8787 15.4827 8.86222 15.2261 8.96634 14.92L11.8309 7.18C11.9093 6.96667 12.0566 6.78347 12.2727 6.6304C12.4888 6.47733 12.7143 6.40053 12.9492 6.4C13.1716 6.4 13.3939 6.4768 13.6163 6.6304C13.8386 6.784 13.9891 6.9672 14.0675 7.18L16.9321 14.92C17.0367 15.2267 17.0205 15.4835 16.8834 15.6904C16.7463 15.8973 16.514 16.0005 16.1865 16C16.0426 16 15.9118 15.9533 15.7941 15.86C15.6764 15.7667 15.5914 15.6533 15.539 15.52L14.872 13.56H11.0657L10.379 15.52C10.3267 15.6533 10.2351 15.7667 10.1043 15.86C9.9735 15.9533 9.83616 16 9.69228 16ZM11.5366 12.16H14.3618L12.9884 8.2H12.91L11.5366 12.16ZM4.82652 5.24C5.0358 5.62667 5.25816 5.98347 5.4936 6.3104C5.72904 6.63733 6.00372 6.97387 6.31764 7.32C6.89316 6.68 7.37058 6.02347 7.7499 5.3504C8.12922 4.67733 8.44968 3.96053 8.71128 3.2H0.784802C0.562442 3.2 0.375922 3.1232 0.22524 2.9696C0.0745586 2.816 -0.000520484 2.62614 2.71557e-06 2.4C2.71557e-06 2.17334 0.0753435 1.9832 0.226025 1.8296C0.376706 1.676 0.562966 1.59947 0.784802 1.6H5.4936V0.800003C5.4936 0.573336 5.56894 0.383203 5.71962 0.229603C5.8703 0.0760027 6.05656 -0.000530565 6.2784 2.76817e-06C6.50076 2.76817e-06 6.68728 0.0768028 6.83796 0.230403C6.98864 0.384003 7.06372 0.573869 7.0632 0.800003V1.6H11.772C11.9944 1.6 12.1809 1.6768 12.3316 1.8304C12.4822 1.984 12.5573 2.17387 12.5568 2.4C12.5568 2.62667 12.4815 2.8168 12.3308 2.9704C12.1801 3.124 11.9938 3.20054 11.772 3.2H10.2809C10.0062 4.14667 9.63342 5.06667 9.16254 5.96C8.69166 6.85333 8.1096 7.69333 7.41636 8.48L9.29988 10.44L8.71128 12.08L6.2784 9.6L2.90376 13.04C2.75988 13.1867 2.57676 13.26 2.3544 13.26C2.13204 13.26 1.94892 13.1867 1.80504 13.04C1.66116 12.8933 1.58922 12.7067 1.58922 12.48C1.58922 12.2533 1.66116 12.0667 1.80504 11.92L5.21892 8.44C4.86576 8.02667 4.53876 7.60987 4.23792 7.1896C3.93708 6.76933 3.66894 6.3264 3.4335 5.8608C3.28962 5.58027 3.28308 5.33333 3.41388 5.12C3.54468 4.90667 3.77358 4.8 4.10058 4.8C4.23138 4.8 4.36872 4.84347 4.5126 4.9304C4.65648 5.01733 4.76112 5.12053 4.82652 5.24Z" fill="#BABCBE"/>
</svg>
