<svg width="17" height="17" viewBox="0 0 17 17" fill="none" xmlns="http://www.w3.org/2000/svg">
<g id="material-symbols:translate-rounded">
<path id="Vector" d="M9.45642 15.5837C9.17308 15.5837 8.96955 15.4921 8.84583 15.3088C8.72211 15.1256 8.70724 14.8985 8.80121 14.6274L11.3866 7.77429C11.4575 7.5854 11.5904 7.42319 11.7854 7.28766C11.9804 7.15213 12.184 7.08413 12.396 7.08366C12.5967 7.08366 12.7974 7.15166 12.9981 7.28766C13.1988 7.42366 13.3345 7.58587 13.4054 7.77429L15.9908 14.6274C16.0852 14.8989 16.0706 15.1263 15.9469 15.3095C15.8232 15.4928 15.6135 15.5841 15.3179 15.5837C15.188 15.5837 15.07 15.5423 14.9637 15.4597C14.8575 15.3771 14.7807 15.2767 14.7335 15.1587L14.1314 13.4232H10.696L10.0762 15.1587C10.029 15.2767 9.94635 15.3771 9.82829 15.4597C9.71024 15.5423 9.58628 15.5837 9.45642 15.5837ZM11.121 12.1837H13.671L12.4314 8.67741H12.3606L11.121 12.1837ZM5.06475 6.05658C5.25364 6.39894 5.45433 6.71486 5.66683 7.00433C5.87933 7.2938 6.12725 7.59177 6.41058 7.89824C6.93003 7.33158 7.36093 6.75027 7.70329 6.15433C8.04565 5.55838 8.33489 4.92372 8.571 4.25033H1.41683C1.21614 4.25033 1.04779 4.18233 0.91179 4.04633C0.77579 3.91033 0.708026 3.74222 0.708499 3.54199C0.708499 3.3413 0.776499 3.17295 0.912499 3.03695C1.0485 2.90095 1.21661 2.83319 1.41683 2.83366H5.66683V2.12533C5.66683 1.92463 5.73483 1.75629 5.87083 1.62029C6.00683 1.48429 6.17494 1.41652 6.37517 1.41699C6.57586 1.41699 6.74421 1.48499 6.88021 1.62099C7.01621 1.75699 7.08397 1.92511 7.0835 2.12533V2.83366H11.3335C11.5342 2.83366 11.7025 2.90166 11.8385 3.03766C11.9745 3.17366 12.0423 3.34177 12.0418 3.54199C12.0418 3.74269 11.9738 3.91104 11.8378 4.04704C11.7018 4.18304 11.5337 4.2508 11.3335 4.25033H9.98767C9.73975 5.08852 9.40329 5.90311 8.97829 6.69408C8.55329 7.48505 8.02794 8.2288 7.40225 8.92533L9.10225 10.6607L8.571 12.1128L6.37517 9.917L3.32933 12.9628C3.19947 13.0927 3.03419 13.1576 2.8335 13.1576C2.6328 13.1576 2.46753 13.0927 2.33767 12.9628C2.2078 12.833 2.14287 12.6677 2.14287 12.467C2.14287 12.2663 2.2078 12.101 2.33767 11.9712L5.41892 8.88991C5.10017 8.52394 4.80503 8.1549 4.5335 7.78279C4.26197 7.41068 4.01996 7.01849 3.80746 6.60624C3.6776 6.35786 3.67169 6.13922 3.78975 5.95033C3.9078 5.76144 4.1144 5.66699 4.40954 5.66699C4.5276 5.66699 4.65155 5.70548 4.78142 5.78245C4.91128 5.85943 5.00572 5.9508 5.06475 6.05658Z" fill="#5E5F62"/>
</g>
</svg>
