<svg width="17" height="17" viewBox="0 0 17 17" fill="none" xmlns="http://www.w3.org/2000/svg">
<g id="material-symbols:translate-rounded">
<path id="Vector" d="M9.45593 15.5832C9.1726 15.5832 8.96907 15.4916 8.84534 15.3083C8.72162 15.1251 8.70675 14.898 8.80072 14.6269L11.3861 7.7738C11.457 7.58491 11.5899 7.4227 11.7849 7.28717C11.98 7.15165 12.1835 7.08365 12.3955 7.08317C12.5962 7.08317 12.7969 7.15117 12.9976 7.28717C13.1983 7.42317 13.3341 7.58538 13.4049 7.7738L15.9903 14.6269C16.0847 14.8985 16.0701 15.1258 15.9464 15.309C15.8227 15.4923 15.613 15.5836 15.3174 15.5832C15.1875 15.5832 15.0695 15.5419 14.9632 15.4592C14.857 15.3766 14.7802 15.2762 14.733 15.1582L14.1309 13.4228H10.6955L10.0757 15.1582C10.0285 15.2762 9.94586 15.3766 9.8278 15.4592C9.70975 15.5419 9.58579 15.5832 9.45593 15.5832ZM11.1205 12.1832H13.6705L12.4309 8.67692H12.3601L11.1205 12.1832ZM5.06426 6.05609C5.25315 6.39845 5.45384 6.71437 5.66634 7.00384C5.87884 7.29331 6.12676 7.59128 6.41009 7.89776C6.92954 7.33109 7.36044 6.74978 7.7028 6.15384C8.04516 5.55789 8.3344 4.92323 8.57051 4.24984H1.41634C1.21565 4.24984 1.0473 4.18184 0.911302 4.04584C0.775302 3.90984 0.707538 3.74173 0.70801 3.54151C0.70801 3.34081 0.77601 3.17246 0.91201 3.03646C1.04801 2.90046 1.21612 2.8327 1.41634 2.83317H5.66634V2.12484C5.66634 1.92415 5.73434 1.7558 5.87034 1.6198C6.00634 1.4838 6.17446 1.41603 6.37468 1.41651C6.57537 1.41651 6.74372 1.48451 6.87972 1.62051C7.01572 1.75651 7.08348 1.92462 7.08301 2.12484V2.83317H11.333C11.5337 2.83317 11.7021 2.90117 11.8381 3.03717C11.9741 3.17317 12.0418 3.34128 12.0413 3.54151C12.0413 3.7422 11.9733 3.91055 11.8373 4.04655C11.7013 4.18255 11.5332 4.25031 11.333 4.24984H9.98718C9.73926 5.08803 9.4028 5.90262 8.9778 6.69359C8.5528 7.48456 8.02746 8.22831 7.40176 8.92484L9.10176 10.6603L8.57051 12.1123L6.37468 9.91651L3.32884 12.9623C3.19898 13.0922 3.0337 13.1571 2.83301 13.1571C2.63232 13.1571 2.46704 13.0922 2.33718 12.9623C2.20732 12.8325 2.14239 12.6672 2.14239 12.4665C2.14239 12.2658 2.20732 12.1005 2.33718 11.9707L5.41843 8.88942C5.09968 8.52345 4.80454 8.15441 4.53301 7.7823C4.26148 7.41019 4.01947 7.01801 3.80697 6.60576C3.67711 6.35737 3.6712 6.13873 3.78926 5.94984C3.90732 5.76095 4.11391 5.66651 4.40905 5.66651C4.52711 5.66651 4.65107 5.70499 4.78093 5.78196C4.91079 5.85894 5.00523 5.95031 5.06426 6.05609Z" fill="#BABCBE"/>
</g>
</svg>
