<svg width="21" height="21" viewBox="0 0 21 21" fill="none" xmlns="http://www.w3.org/2000/svg">
<g id="Widgets">
<path id="Vector" fill-rule="evenodd" clip-rule="evenodd" d="M4.69797 1.17898e-06C3.79952 -2.95531e-05 3.05028 -5.00075e-05 2.45551 0.0818613C1.82772 0.168331 1.26092 0.358532 0.805457 0.825118C0.349989 1.2917 0.16432 1.87234 0.0799107 2.51545C-4.88159e-05 3.12474 -2.88489e-05 3.89223 1.15088e-06 4.81263V6.968C-2.88489e-05 7.88839 -4.88159e-05 8.65591 0.0799107 9.26522C0.16432 9.90834 0.349989 10.489 0.805457 10.9555C1.26092 11.4221 1.82772 11.6123 2.45551 11.6988C3.05028 11.7807 3.79949 11.7806 4.69795 11.7806H4.80197C5.70044 11.7806 6.44968 11.7807 7.04444 11.6988C7.67224 11.6123 8.23903 11.4221 8.6945 10.9555C9.14995 10.489 9.33565 9.90834 9.42005 9.26522C9.50005 8.65591 9.49995 7.88842 9.49995 6.96803V4.81266C9.49995 3.89226 9.50005 3.12474 9.42005 2.51545C9.33565 1.87234 9.14995 1.2917 8.6945 0.825118C8.23903 0.358532 7.67224 0.168331 7.04444 0.0818613C6.44968 -5.00075e-05 5.70047 -2.95531e-05 4.802 1.17898e-06H4.69797ZM1.86611 1.91166C1.99643 1.77816 2.19392 1.66832 2.65539 1.60477C3.13841 1.53825 3.78597 1.53661 4.74997 1.53661C5.71398 1.53661 6.36154 1.53825 6.84457 1.60477C7.30603 1.66832 7.50353 1.77816 7.63385 1.91166C7.76416 2.04516 7.87139 2.24747 7.93343 2.7202C7.99837 3.21502 7.99996 3.87838 7.99996 4.86592V6.91473C7.99996 7.90226 7.99837 8.56566 7.93343 9.06044C7.87139 9.53321 7.76416 9.73553 7.63385 9.86901C7.50353 10.0025 7.30603 10.1123 6.84457 10.1759C6.36154 10.2424 5.71398 10.244 4.74997 10.244C3.78597 10.244 3.13841 10.2424 2.65539 10.1759C2.19392 10.1123 1.99643 10.0025 1.86611 9.86901C1.73579 9.73553 1.62857 9.53321 1.56653 9.06044C1.50159 8.56566 1.49999 7.90226 1.49999 6.91473V4.86592C1.49999 3.87838 1.50159 3.21502 1.56653 2.7202C1.62857 2.24747 1.73579 2.04516 1.86611 1.91166Z" fill="#BABCBE"/>
<path id="Vector_2" fill-rule="evenodd" clip-rule="evenodd" d="M16.198 9.21973C15.2995 9.21973 14.5503 9.21962 13.9555 9.30158C13.3277 9.38804 12.7609 9.57827 12.3055 10.0449C11.85 10.5114 11.6643 11.092 11.5799 11.7351C11.4999 12.3445 11.5 13.1119 11.5 14.0324V16.1877C11.5 17.1081 11.4999 17.8756 11.5799 18.4849C11.6643 19.1281 11.85 19.7087 12.3055 20.1752C12.7609 20.6418 13.3277 20.8321 13.9555 20.9185C14.5503 21.0005 15.2995 21.0004 16.1979 21.0004H16.302C17.2004 21.0004 17.9497 21.0005 18.5445 20.9185C19.1723 20.8321 19.7391 20.6418 20.1945 20.1752C20.6499 19.7087 20.8356 19.1281 20.92 18.4849C21 17.8756 20.9999 17.1081 20.9999 16.1878V14.0324C20.9999 13.1121 21 12.3445 20.92 11.7351C20.8356 11.092 20.6499 10.5114 20.1945 10.0449C19.7391 9.57827 19.1723 9.38804 18.5445 9.30158C17.9497 9.21962 17.2005 9.21973 16.302 9.21973H16.198ZM13.3661 11.1314C13.4964 10.9979 13.6939 10.8881 14.1554 10.8245C14.6384 10.758 15.286 10.7563 16.25 10.7563C17.214 10.7563 17.8616 10.758 18.3446 10.8245C18.8061 10.8881 19.0036 10.9979 19.1339 11.1314C19.2642 11.2648 19.3714 11.4672 19.4335 11.9399C19.4984 12.4347 19.5 13.0981 19.5 14.0856V16.1345C19.5 17.122 19.4984 17.7854 19.4335 18.2802C19.3714 18.7529 19.2642 18.9553 19.1339 19.0887C19.0036 19.2222 18.8061 19.332 18.3446 19.3956C17.8616 19.4621 17.214 19.4638 16.25 19.4638C15.286 19.4638 14.6384 19.4621 14.1554 19.3956C13.6939 19.332 13.4964 19.2222 13.3661 19.0887C13.2358 18.9553 13.1286 18.7529 13.0665 18.2802C13.0016 17.7854 13 17.122 13 16.1345V14.0856C13 13.0981 13.0016 12.4347 13.0665 11.9399C13.1286 11.4672 13.2358 11.2648 13.3661 11.1314Z" fill="#BABCBE"/>
<path id="Vector_3" fill-rule="evenodd" clip-rule="evenodd" d="M15.2248 0H17.2753C17.7197 0 18.0908 -1.02923e-05 18.3954 0.0212768C18.7125 0.0434449 19.012 0.0912231 19.3024 0.214438C19.9762 0.50036 20.5115 1.04878 20.7906 1.73905C20.9109 2.03653 20.9575 2.34336 20.9791 2.6682C20.9999 2.98025 20.9999 3.36034 20.9999 3.81565V3.86739C20.9999 4.3227 20.9999 4.70279 20.9791 5.01484C20.9575 5.33967 20.9109 5.6465 20.7906 5.94398C20.5115 6.63425 19.9762 7.18267 19.3024 7.46859C19.012 7.59181 18.7125 7.63959 18.3954 7.66175C18.0908 7.68305 17.7197 7.68304 17.2753 7.68303H15.2247C14.7803 7.68304 14.4092 7.68305 14.1046 7.66175C13.7875 7.63959 13.488 7.59181 13.1976 7.46859C12.5238 7.18267 11.9884 6.63425 11.7093 5.94398C11.5891 5.6465 11.5424 5.33967 11.5208 5.01484C11.5 4.70278 11.5 4.3227 11.5 3.86738V3.81565C11.5 3.36034 11.5 2.98025 11.5208 2.6682C11.5424 2.34336 11.5891 2.03653 11.7093 1.73905C11.9884 1.04878 12.5238 0.50036 13.1976 0.214438C13.488 0.0912231 13.7875 0.0434449 14.1046 0.0212768C14.4092 -1.02923e-05 14.7803 0 15.2248 0ZM14.2067 1.55432C13.966 1.57115 13.8488 1.60135 13.7716 1.63408C13.4654 1.76404 13.222 2.01332 13.0952 2.32709C13.0632 2.40612 13.0337 2.5262 13.0173 2.77281C13.0004 3.0263 13 3.35369 13 3.84151C13 4.32935 13.0004 4.65674 13.0173 4.91023C13.0337 5.15684 13.0632 5.27691 13.0952 5.35595C13.222 5.66971 13.4654 5.919 13.7716 6.04895C13.8488 6.08169 13.966 6.11189 14.2067 6.12871C14.4542 6.14601 14.7738 6.14642 15.25 6.14642H17.25C17.7262 6.14642 18.0458 6.14601 18.2933 6.12871C18.534 6.11189 18.6512 6.08169 18.7284 6.04895C19.0346 5.919 19.278 5.66971 19.4049 5.35595C19.4368 5.27691 19.4663 5.15684 19.4827 4.91023C19.4996 4.65674 19.5 4.32935 19.5 3.84151C19.5 3.35369 19.4996 3.0263 19.4827 2.77279C19.4663 2.5262 19.4368 2.40612 19.4049 2.32709C19.278 2.01332 19.0346 1.76404 18.7284 1.63408C18.6512 1.60135 18.534 1.57115 18.2933 1.55432C18.0458 1.53703 17.7262 1.53661 17.25 1.53661H15.25C14.7738 1.53661 14.4542 1.53703 14.2067 1.55432Z" fill="#BABCBE"/>
<path id="Vector_4" fill-rule="evenodd" clip-rule="evenodd" d="M3.72473 13.3174C3.28027 13.3174 2.90923 13.3174 2.60463 13.3387C2.28753 13.3608 1.988 13.4087 1.69761 13.5318C1.02379 13.8177 0.488437 14.3662 0.209329 15.0564C0.0890495 15.3539 0.0424097 15.6607 0.0207698 15.9855C-1.00471e-05 16.2976 0 16.6776 0 17.133V17.1848C0 17.6401 -1.00471e-05 18.0202 0.0207698 18.3322C0.0424097 18.6571 0.0890495 18.9639 0.209329 19.2614C0.488437 19.9516 1.02379 20.5001 1.69761 20.786C1.988 20.9092 2.28753 20.957 2.60463 20.9791C2.90923 21.0004 3.28027 21.0004 3.72473 21.0004H5.77523C6.21969 21.0004 6.59072 21.0004 6.89533 20.9791C7.21243 20.957 7.51195 20.9092 7.80234 20.786C8.47616 20.5001 9.01155 19.9516 9.29065 19.2614C9.41095 18.9639 9.45755 18.6571 9.47915 18.3322C9.49995 18.0202 9.49995 17.6401 9.49995 17.1848V17.133C9.49995 16.6777 9.49995 16.2976 9.47915 15.9855C9.45755 15.6607 9.41095 15.3539 9.29065 15.0564C9.01155 14.3662 8.47616 13.8177 7.80234 13.5318C7.51195 13.4087 7.21243 13.3608 6.89533 13.3387C6.59071 13.3174 6.21969 13.3174 5.77522 13.3174H3.72473ZM2.27164 14.9515C2.34879 14.9187 2.46601 14.8885 2.70673 14.8717C2.95419 14.8544 3.27378 14.854 3.74998 14.854H5.74997C6.22618 14.854 6.54576 14.8544 6.79322 14.8717C7.03395 14.8885 7.15116 14.9187 7.22832 14.9515C7.5346 15.0814 7.77795 15.3307 7.90481 15.6444C7.93677 15.7235 7.96625 15.8436 7.98267 16.0901C7.99956 16.3437 7.99996 16.6711 7.99996 17.1589C7.99996 17.6467 7.99956 17.9741 7.98267 18.2277C7.96625 18.4742 7.93677 18.5943 7.90481 18.6734C7.77795 18.987 7.5346 19.2364 7.22832 19.3664C7.15116 19.3991 7.03395 19.4293 6.79322 19.4461C6.54576 19.4634 6.22618 19.4638 5.74997 19.4638H3.74998C3.27378 19.4638 2.95419 19.4634 2.70672 19.4461C2.46601 19.4293 2.34879 19.3991 2.27164 19.3664C1.96535 19.2364 1.72201 18.987 1.59514 18.6734C1.56319 18.5943 1.53371 18.4742 1.51728 18.2277C1.5004 17.9741 1.49999 17.6467 1.49999 17.1589C1.49999 16.6711 1.5004 16.3437 1.51728 16.0901C1.53371 15.8436 1.56319 15.7235 1.59514 15.6444C1.72201 15.3307 1.96535 15.0814 2.27164 14.9515Z" fill="#BABCBE"/>
</g>
</svg>
