<svg width="24" height="24" viewBox="0 0 24 24" fill="none" xmlns="http://www.w3.org/2000/svg">
<g id="Group 226">
<path id="Vector" d="M13.1895 16.0283C13.1895 13.5746 13.1895 12.3477 13.969 11.5855C14.7486 10.8232 16.0034 10.8232 18.5128 10.8232C21.0223 10.8232 22.277 10.8232 23.0566 11.5855C23.8362 12.3477 23.8362 13.5746 23.8362 16.0283V18.6308C23.8362 21.0845 23.8362 22.3114 23.0566 23.0736C22.277 23.8359 21.0223 23.8359 18.5128 23.8359C16.0034 23.8359 14.7486 23.8359 13.969 23.0736C13.1895 22.3114 13.1895 21.0845 13.1895 18.6308V16.0283Z" fill="#5E5F62"/>
<path id="Vector_2" d="M0 7.80759C0 10.2613 -7.05106e-08 11.4882 0.77959 12.2503C1.55918 13.0126 2.81391 13.0126 5.32337 13.0126C7.83283 13.0126 9.08756 13.0126 9.86716 12.2503C10.6467 11.4882 10.6467 10.2613 10.6467 7.80759V5.20506C10.6467 2.75137 10.6467 1.52453 9.86716 0.762269C9.08756 7.05104e-08 7.83283 0 5.32337 0C2.81391 0 1.55918 7.05104e-08 0.77959 0.762269C-7.05106e-08 1.52453 0 2.75137 0 5.20506V7.80759Z" fill="#5E5F62"/>
<path id="Vector_3" d="M13.1895 4.14039C13.1895 2.85426 13.1895 2.2112 13.3921 1.70396C13.6622 1.02761 14.1803 0.490257 14.8326 0.210107C15.3216 -8.8138e-08 15.9418 0 17.182 0H19.8437C21.0839 0 21.704 -8.8138e-08 22.193 0.210107C22.8453 0.490257 23.3635 1.02761 23.6335 1.70396C23.8362 2.2112 23.8362 2.85426 23.8362 4.14039C23.8362 5.42651 23.8362 6.06957 23.6335 6.57681C23.3635 7.25316 22.8453 7.79051 22.193 8.07067C21.704 8.28077 21.0839 8.28077 19.8437 8.28077H17.182C15.9418 8.28077 15.3216 8.28077 14.8326 8.07067C14.1803 7.79051 13.6622 7.25316 13.3921 6.57681C13.1895 6.06957 13.1895 5.42651 13.1895 4.14039Z" fill="#5E5F62"/>
<path id="Vector_4" d="M0 19.6951C0 20.9812 -1.23394e-07 21.6243 0.202607 22.1315C0.472751 22.8078 0.990916 23.3452 1.6431 23.6254C2.13225 23.8355 2.75234 23.8355 3.99253 23.8355H6.65421C7.8944 23.8355 8.51449 23.8355 9.00364 23.6254C9.65588 23.3452 10.174 22.8078 10.4441 22.1315C10.6467 21.6243 10.6467 20.9812 10.6467 19.6951C10.6467 18.409 10.6467 17.7659 10.4441 17.2586C10.174 16.5823 9.65588 16.0449 9.00364 15.7648C8.51449 15.5547 7.8944 15.5547 6.65421 15.5547H3.99253C2.75234 15.5547 2.13225 15.5547 1.6431 15.7648C0.990916 16.0449 0.472751 16.5823 0.202607 17.2586C-1.23394e-07 17.7659 0 18.409 0 19.6951Z" fill="#5E5F62"/>
</g>
</svg>
